<mxfile host="drawio-plugin" modified="2021-12-05T17:11:37.445Z" agent="5.0 (Windows NT 6.2; Win64; x64) AppleWebKit/537.36 (KHTML, like Gecko) Chrome/89.0.4389.114 Safari/537.36" etag="tJXbh9f-ImexmsjN3N9A" version="14.7.4" type="embed"><diagram id="RHD8b2WqxIgKt61pzVi_" name="Page-1"><mxGraphModel dx="1638" dy="262" grid="1" gridSize="10" guides="1" tooltips="1" connect="1" arrows="1" fold="1" page="1" pageScale="1" pageWidth="850" pageHeight="1100" math="0" shadow="0"><root><mxCell id="0"/><mxCell id="1" parent="0"/><mxCell id="KcTm6kLWhk9CSUf5Deba-8" style="edgeStyle=orthogonalEdgeStyle;rounded=0;orthogonalLoop=1;jettySize=auto;html=1;exitX=1;exitY=0.5;exitDx=0;exitDy=0;entryX=0;entryY=0.5;entryDx=0;entryDy=0;" parent="1" source="KcTm6kLWhk9CSUf5Deba-1" target="KcTm6kLWhk9CSUf5Deba-2" edge="1"><mxGeometry relative="1" as="geometry"/></mxCell><mxCell id="KcTm6kLWhk9CSUf5Deba-1" value="init" style="rounded=0;whiteSpace=wrap;html=1;" parent="1" vertex="1"><mxGeometry x="-106" y="160" width="120" height="60" as="geometry"/></mxCell><mxCell id="KcTm6kLWhk9CSUf5Deba-15" value="" style="edgeStyle=orthogonalEdgeStyle;rounded=0;orthogonalLoop=1;jettySize=auto;html=1;entryX=0;entryY=0.5;entryDx=0;entryDy=0;" parent="1" source="KcTm6kLWhk9CSUf5Deba-2" target="KcTm6kLWhk9CSUf5Deba-14" edge="1"><mxGeometry relative="1" as="geometry"><mxPoint x="224" y="190" as="targetPoint"/></mxGeometry></mxCell><mxCell id="KcTm6kLWhk9CSUf5Deba-2" value="download_files" style="rounded=0;whiteSpace=wrap;html=1;" parent="1" vertex="1"><mxGeometry x="34" y="160" width="120" height="60" as="geometry"/></mxCell><mxCell id="KcTm6kLWhk9CSUf5Deba-10" style="edgeStyle=orthogonalEdgeStyle;rounded=0;orthogonalLoop=1;jettySize=auto;html=1;exitX=1;exitY=0.5;exitDx=0;exitDy=0;entryX=0;entryY=0.5;entryDx=0;entryDy=0;" parent="1" source="KcTm6kLWhk9CSUf5Deba-3" target="KcTm6kLWhk9CSUf5Deba-4" edge="1"><mxGeometry relative="1" as="geometry"/></mxCell><mxCell id="KcTm6kLWhk9CSUf5Deba-3" value="load_content_details_to_S3" style="rounded=0;whiteSpace=wrap;html=1;" parent="1" vertex="1"><mxGeometry x="338" y="110" width="165" height="60" as="geometry"/></mxCell><mxCell id="KcTm6kLWhk9CSUf5Deba-28" value="" style="edgeStyle=orthogonalEdgeStyle;rounded=0;orthogonalLoop=1;jettySize=auto;html=1;" parent="1" source="KcTm6kLWhk9CSUf5Deba-4" target="KcTm6kLWhk9CSUf5Deba-25" edge="1"><mxGeometry relative="1" as="geometry"/></mxCell><mxCell id="KcTm6kLWhk9CSUf5Deba-4" value="S3_to_redshift" style="rounded=0;whiteSpace=wrap;html=1;" parent="1" vertex="1"><mxGeometry x="540" y="160" width="120" height="60" as="geometry"/></mxCell><mxCell id="KcTm6kLWhk9CSUf5Deba-5" value="calculate_graphs" style="rounded=0;whiteSpace=wrap;html=1;" parent="1" vertex="1"><mxGeometry x="960" y="160" width="120" height="60" as="geometry"/></mxCell><mxCell id="KcTm6kLWhk9CSUf5Deba-12" style="edgeStyle=orthogonalEdgeStyle;rounded=0;orthogonalLoop=1;jettySize=auto;html=1;exitX=1;exitY=0.5;exitDx=0;exitDy=0;entryX=0;entryY=0.5;entryDx=0;entryDy=0;" parent="1" source="KcTm6kLWhk9CSUf5Deba-6" target="KcTm6kLWhk9CSUf5Deba-5" edge="1"><mxGeometry relative="1" as="geometry"/></mxCell><mxCell id="KcTm6kLWhk9CSUf5Deba-6" value="data_quality_check" style="rounded=0;whiteSpace=wrap;html=1;" parent="1" vertex="1"><mxGeometry x="820" y="160" width="120" height="60" as="geometry"/></mxCell><mxCell id="4" style="edgeStyle=orthogonalEdgeStyle;rounded=0;orthogonalLoop=1;jettySize=auto;html=1;exitX=1;exitY=0.5;exitDx=0;exitDy=0;entryX=0;entryY=0.5;entryDx=0;entryDy=0;" edge="1" parent="1" source="KcTm6kLWhk9CSUf5Deba-14" target="KcTm6kLWhk9CSUf5Deba-17"><mxGeometry relative="1" as="geometry"/></mxCell><mxCell id="5" style="edgeStyle=orthogonalEdgeStyle;rounded=0;orthogonalLoop=1;jettySize=auto;html=1;exitX=1;exitY=0.5;exitDx=0;exitDy=0;entryX=0;entryY=0.5;entryDx=0;entryDy=0;" edge="1" parent="1" source="KcTm6kLWhk9CSUf5Deba-14" target="KcTm6kLWhk9CSUf5Deba-3"><mxGeometry relative="1" as="geometry"/></mxCell><mxCell id="KcTm6kLWhk9CSUf5Deba-14" value="clean_data" style="rounded=0;whiteSpace=wrap;html=1;" parent="1" vertex="1"><mxGeometry x="174" y="160" width="120" height="60" as="geometry"/></mxCell><mxCell id="KcTm6kLWhk9CSUf5Deba-18" value="" style="edgeStyle=orthogonalEdgeStyle;rounded=0;orthogonalLoop=1;jettySize=auto;html=1;" parent="1" source="KcTm6kLWhk9CSUf5Deba-17" target="KcTm6kLWhk9CSUf5Deba-4" edge="1"><mxGeometry relative="1" as="geometry"/></mxCell><mxCell id="KcTm6kLWhk9CSUf5Deba-17" value="load_content_rltship_to_S3" style="rounded=0;whiteSpace=wrap;html=1;" parent="1" vertex="1"><mxGeometry x="338" y="210" width="165" height="60" as="geometry"/></mxCell><mxCell id="KcTm6kLWhk9CSUf5Deba-27" value="" style="edgeStyle=orthogonalEdgeStyle;rounded=0;orthogonalLoop=1;jettySize=auto;html=1;" parent="1" source="KcTm6kLWhk9CSUf5Deba-25" target="KcTm6kLWhk9CSUf5Deba-6" edge="1"><mxGeometry relative="1" as="geometry"/></mxCell><mxCell id="KcTm6kLWhk9CSUf5Deba-25" value="expand_data" style="rounded=0;whiteSpace=wrap;html=1;" parent="1" vertex="1"><mxGeometry x="680" y="160" width="120" height="60" as="geometry"/></mxCell></root></mxGraphModel></diagram></mxfile>